PathFileType	4	(X/Y/Z)	D:\Share\Shared_Data\Ergonomics\Sit To Stand Pertubation\S1\Unperturbed_NoHarness.trc
DataRate	CameraRate	NumFrames	NumMarkers	Units	OrigDataRate	OrigDataStartFrame	OrigNumFrames	
100	100	13	18	m	100	1456	281
Frame#	Time	R_Thigh_Med			R_ASIS			R_Pelvis			V_Sacral			L_Pelvis			L_ASIS			Clavical			R_Acromium			L_Acromium			Sternum			Torso			R_Thigh_Lat			R_Thigh			R_Shank_Med			R_Shank_Lat			R_Shank			R_Heel			R_Toe			
		X1	Y1	Z1	X2	Y2	Z2	X3	Y3	Z3	X4	Y4	Z4	X5	Y5	Z5	X6	Y6	Z6	X7	Y7	Z7	X8	Y8	Z8	X9	Y9	Z9	X10	Y10	Z10	X11	Y11	Z11	X12	Y12	Z12	X13	Y13	Z13	X14	Y14	Z14	X15	Y15	Z15	X16	Y16	Z16	X17	Y17	Z17	X18	Y18	Z18	

1456	14.55	0.35643286	0.41634015	0.026972567	0.41869827	0.8954903	0.097875961	0.35517383	0.90774677	0.12955109	0.25871375	0.90472211	-0.021477739	0.36043307	0.90904041	-0.17264531	0.44823462	0.89976123	-0.11340312	0.47763867	1.2436632	-0.01457601	0.41745856	1.3209551	0.13337946	0.37349747	1.2800411	-0.20899716	0.46164917	1.2577788	0.088224854	0.47340775	1.2505667	-0.073599396	0.38118143	0.43740192	0.14265878	0.44693039	0.60875903	0.088381042	0.31792627	0.10035594	0.069496994	0.29392892	0.10245676	0.15008505	0.33451544	0.31059949	0.16433302	0.24428419	0.034667717	0.093578728	0.44937408	0.045541176	0.12192487
1457	14.56	0.35543973	0.4166312	0.027543362	0.41656711	0.89735913	0.10064545	0.35694821	0.90812683	0.12934515	0.26072418	0.90498187	-0.021786491	0.36232837	0.90925629	-0.17292078	0.45008472	0.90029199	-0.11355717	0.47716473	1.2446097	-0.014862357	0.41650461	1.3215658	0.13306639	0.37294431	1.2803685	-0.20938817	0.46107672	1.2586072	0.087929535	0.47295987	1.2514644	-0.073910896	0.38009778	0.43766632	0.14303619	0.44740277	0.60841364	0.088618271	0.31781345	0.1005209	0.069566765	0.29380508	0.10249889	0.15011263	0.3337395	0.31076877	0.16458717	0.24424147	0.034633018	0.093497208	0.44939029	0.04531823	0.12188798
1458	14.57	0.35471774	0.41688455	0.028234406	0.41375034	0.89935773	0.1038402	0.3586665	0.90846588	0.12915382	0.26267548	0.90519617	-0.022058565	0.36414755	0.90943311	-0.17318109	0.45187003	0.90078088	-0.11370808	0.47667871	1.2454875	-0.015155807	0.41556299	1.3221104	0.1327545	0.37236847	1.280632	-0.20979712	0.46050058	1.2593683	0.087626404	0.47249414	1.2522959	-0.07422937	0.37906561	0.43792908	0.14342241	0.44789377	0.60807227	0.088860985	0.31771021	0.1006897	0.069637733	0.29367749	0.10253751	0.15014629	0.3329921	0.31093259	0.16485294	0.24421941	0.034551365	0.09337841	0.44944849	0.045002041	0.12181746
1459	14.58	0.35415894	0.41711874	0.028931135	0.41035995	0.90143817	0.10735251	0.36033163	0.90876825	0.12897142	0.2645679	0.90536798	-0.02229447	0.36589191	0.9095741	-0.17342462	0.45358948	0.90123053	-0.11385435	0.47618164	1.2463021	-0.015456999	0.41463321	1.3225868	0.1324456	0.37177591	1.2808311	-0.21020914	0.45991943	1.2600652	0.087316315	0.47201077	1.2530645	-0.074555939	0.37808878	0.43818805	0.14381781	0.44840634	0.60773883	0.089103088	0.31761533	0.10086163	0.069710266	0.29354892	0.1025737	0.15018695	0.33227704	0.31109097	0.16512991	0.24422015	0.034417557	0.09322139	0.44952585	0.04465884	0.12173413
1460	14.59	0.35366632	0.4173501	0.029565754	0.40674011	0.90349158	0.11091248	0.36194812	0.90903589	0.12879561	0.26640231	0.90550079	-0.02249391	0.36756314	0.90968231	-0.17364922	0.45524243	0.90164331	-0.11399521	0.47567538	1.2470576	-0.015766257	0.41371616	1.3229957	0.13214119	0.3711727	1.2809679	-0.21061417	0.45933386	1.2607004	0.087000526	0.47151044	1.2537729	-0.074891449	0.37717026	0.43843869	0.14422516	0.44893808	0.60741626	0.089339737	0.31752737	0.10103432	0.069784805	0.29342334	0.10260941	0.15023474	0.33159656	0.31124274	0.16541617	0.24424179	0.034239796	0.093035507	0.44959207	0.044389328	0.12166737
1461	14.6	0.35318631	0.4175874	0.030117796	0.40369229	0.90526068	0.11392146	0.36352386	0.90926776	0.12862936	0.26817978	0.90559912	-0.02265695	0.36916351	0.90976117	-0.17385345	0.45682919	0.90202203	-0.11413143	0.47516205	1.2477568	-0.016083628	0.41281314	1.3233413	0.13184218	0.37056366	1.2810441	-0.2110062	0.45874603	1.2612771	0.086680229	0.47099521	1.2544229	-0.075236267	0.37631143	0.4386759	0.14464703	0.4494823	0.6071059	0.089568092	0.31744531	0.10120458	0.069861618	0.29330399	0.10264668	0.15028867	0.33095227	0.31138577	0.1657088	0.24427835	0.034039799	0.092839775	0.44962308	0.044275047	0.12164069
1462	14.61	0.35270355	0.41783237	0.030592926	0.4021546	0.90645404	0.11570634	0.36506729	0.90946271	0.12847743	0.26990192	0.90566675	-0.022785959	0.37069617	0.90981342	-0.17403722	0.45835236	0.9023692	-0.11426518	0.47464377	1.2484004	-0.016408617	0.41192514	1.3236295	0.13154843	0.36995151	1.2810612	-0.21138048	0.45815863	1.2617979	0.086356071	0.47046863	1.2550144	-0.07559053	0.37551141	0.43889713	0.14508194	0.45003232	0.60680701	0.089788483	0.31736868	0.10136937	0.069940697	0.29319284	0.10268684	0.15034673	0.33034506	0.3115184	0.16600534	0.24432249	0.033842278	0.092654366	0.4496033	0.044372181	0.12166985
1463	14.62	0.35222067	0.41808139	0.031009035	0.40283167	0.90687708	0.11580447	0.36658347	0.90962134	0.12834151	0.27157108	0.90570612	-0.022885742	0.3721655	0.909841	-0.17420143	0.45981683	0.90268646	-0.1143982	0.47412213	1.2489885	-0.016740118	0.41105255	1.3238672	0.13125862	0.36933594	1.2810233	-0.2117319	0.45757376	1.2622671	0.08602816	0.46993442	1.2555475	-0.075953857	0.37476678	0.43910266	0.14552402	0.45058417	0.60651703	0.090004745	0.31729785	0.10152656	0.070021759	0.29309015	0.10272967	0.15040659	0.32977383	0.31163998	0.16630389	0.24436772	0.033666058	0.092493286	0.44952505	0.044714836	0.12176368
1464	14.63	0.35174573	0.41832794	0.031388088	0.40603656	0.90647894	0.11407	0.36807312	0.90974719	0.12821983	0.27318988	0.90571844	-0.022962002	0.37357733	0.90984521	-0.1743476	0.46122876	0.90297559	-0.11452975	0.47359769	1.2495221	-0.017076889	0.41019556	1.324063	0.13097075	0.36871216	1.2809381	-0.21205438	0.45699295	1.2626886	0.085696091	0.46939529	1.2560234	-0.076325096	0.3740722	0.43929434	0.14596532	0.45113605	0.60623273	0.090222878	0.317233	0.10167535	0.070104446	0.29299481	0.10277336	0.15046629	0.32923541	0.31175162	0.16660262	0.24440889	0.033524075	0.092364456	0.44938962	0.045307823	0.12192208
1465	14.64	0.35128696	0.41856476	0.031750731	0.41161215	0.9053584	0.11070199	0.36953488	0.90984412	0.12811043	0.27476077	0.90570447	-0.023020582	0.37493808	0.9098269	-0.17447797	0.46259369	0.90323804	-0.11465691	0.47306912	1.2500044	-0.017417908	0.40935477	1.3242241	0.13068233	0.3680687	1.2808199	-0.21234186	0.45641721	1.2630669	0.085359261	0.46885254	1.2564456	-0.076702095	0.37342108	0.43947473	0.14639813	0.45168643	0.6059519	0.090448586	0.31717419	0.10181621	0.070188431	0.29290533	0.10281537	0.15052481	0.32872684	0.31185468	0.16690015	0.24444272	0.033422882	0.092269836	0.44921136	0.046107677	0.12213135
1466	14.65	0.35085181	0.4187861	0.032113495	0.41895258	0.90374078	0.10620184	0.3709675	0.90991547	0.12801379	0.27628592	0.90566443	-0.023067492	0.37625409	0.90978625	-0.17459532	0.4639162	0.90347583	-0.11477698	0.47253439	1.2504391	-0.017762236	0.40853079	1.3243577	0.13039058	0.36738657	1.2806871	-0.2125881	0.45584717	1.2634056	0.085017105	0.46830563	1.2568182	-0.077082237	0.37280618	0.4396456	0.14681709	0.45223318	0.60567377	0.090685555	0.31712125	0.10195018	0.070273346	0.29282025	0.10285369	0.15058182	0.32824655	0.31195023	0.16719591	0.24446835	0.033361092	0.092205437	0.44902008	0.047010246	0.12236145
1467	14.66	0.35044696	0.41898825	0.032488331	0.4272605	0.90189008	0.10117275	0.37236975	0.90996368	0.1279318	0.2777674	0.90559937	-0.023108105	0.37753091	0.90972314	-0.17470236	0.46520001	0.9036897	-0.11488873	0.47199213	1.2508281	-0.018108885	0.40772311	1.3244695	0.13009277	0.36664136	1.2805638	-0.2127813	0.4552832	1.2637094	0.084669586	0.4677529	1.2571467	-0.07746315	0.37222092	0.43980701	0.14722171	0.45277368	0.60539801	0.090935028	0.31707349	0.10207819	0.070358749	0.29273877	0.10288701	0.15063785	0.32779333	0.31203802	0.16748981	0.24448668	0.033331791	0.092164101	0.44885272	0.047882648	0.12257503
1468	14.67	0.35007706	0.41916983	0.032882397	0.4357197	0.90004639	0.096176437	0.37373795	0.90999054	0.12786479	0.27920706	0.90551062	-0.02314608	0.37877335	0.90963788	-0.1748009	0.46644821	0.90387958	-0.11499215	0.47144229	1.2511733	-0.018456947	0.40693051	1.3245631	0.12978667	0.36580792	1.2804746	-0.21289722	0.45472525	1.2639814	0.084317223	0.46719321	1.2574338	-0.077843292	0.37166064	0.43995786	0.14761598	0.45330493	0.60512402	0.09119622	0.31703	0.10220051	0.070444267	0.29266058	0.10291405	0.15069424	0.32736417	0.31211673	0.16778166	0.24449922	0.033326229	0.092138809	0.44873651	0.048625824	0.12274433
